<svg width="21" height="21" xmlns="http://www.w3.org/2000/svg">

 <g>
  <title>background</title>
  <rect fill="none" id="canvas_background" height="23" width="23" y="-1" x="-1"/>
 </g>
 <g>
  <title>Layer 1</title>
  <path fill="#ffffff" id="svg_1" d="m20.02941,8.895384l0.365,-0.98l-1.042,-2.515l-0.951,-0.434l-1.101,0.367l-0.275,-0.086c-0.358,-0.44 -0.763,-0.844 -1.206,-1.204l-0.086,-0.277l0.367,-1.102l-0.434,-0.951l-2.515,-1.042l-0.979,0.366l-0.52,1.039l-0.256,0.134c-0.568,-0.059 -1.14,-0.06 -1.704,-0.002l-0.256,-0.133l-0.519,-1.037l-0.979,-0.367l-2.516,1.042l-0.434,0.951l0.367,1.1l-0.087,0.276c-0.44,0.358 -0.845,0.763 -1.204,1.206l-0.276,0.086l-1.101,-0.367l-0.951,0.434l-1.042,2.516l0.365,0.98l1.039,0.52l0.134,0.256c-0.059,0.567 -0.059,1.139 -0.002,1.704l-0.133,0.256l-1.037,0.519l-0.365,0.98l1.042,2.515l0.951,0.434l1.1,-0.366l0.275,0.086c0.358,0.44 0.763,0.844 1.206,1.204l0.086,0.275l-0.367,1.102l0.435,0.951l2.515,1.042l0.98,-0.366l0.519,-1.038l0.256,-0.134c0.568,0.059 1.14,0.059 1.705,0.001l0.255,0.134l0.519,1.037l0.979,0.365l2.515,-1.042l0.434,-0.951l-0.366,-1.1l0.086,-0.275c0.441,-0.359 0.845,-0.764 1.204,-1.206l0.275,-0.086l1.102,0.367l0.951,-0.434l1.042,-2.516l-0.365,-0.98l-1.039,-0.52l-0.134,-0.255c0.059,-0.567 0.059,-1.139 0.002,-1.705l0.133,-0.256l1.038,-0.518zm-1.719,-0.175l-0.403,0.772l0.017,0.142c0.07,0.586 0.07,1.182 -0.002,1.771l-0.017,0.143l0.404,0.773l0.98,0.49l0.111,0.298l-0.764,1.843l-0.289,0.132l-1.04,-0.346l-0.832,0.261l-0.089,0.113c-0.365,0.467 -0.787,0.889 -1.251,1.254l-0.113,0.088l-0.261,0.832l0.346,1.039l-0.132,0.289l-1.843,0.764l-0.298,-0.111l-0.49,-0.979l-0.772,-0.404l-0.142,0.017c-0.585,0.07 -1.181,0.07 -1.772,-0.002l-0.142,-0.017l-0.773,0.404l-0.49,0.981l-0.298,0.111l-1.843,-0.763l-0.132,-0.289l0.346,-1.04l-0.261,-0.832l-0.113,-0.089c-0.468,-0.367 -0.89,-0.788 -1.254,-1.252l-0.088,-0.113l-0.831,-0.261l-1.039,0.347l-0.289,-0.132l-0.764,-1.843l0.111,-0.298l0.846,-0.424l0.151,-0.101l0.386,-0.738l-0.017,-0.142c-0.07,-0.586 -0.07,-1.182 0.002,-1.771l0.017,-0.143l-0.404,-0.773l-0.98,-0.49l-0.112,-0.298l0.764,-1.843l0.289,-0.132l1.04,0.346l0.832,-0.261l0.089,-0.113c0.366,-0.468 0.787,-0.889 1.251,-1.254l0.113,-0.089l0.26,-0.832l-0.345,-1.037l0.132,-0.289l1.843,-0.764l0.298,0.111l0.49,0.979l0.772,0.404l0.142,-0.017c0.586,-0.07 1.182,-0.07 1.771,0.002l0.143,0.017l0.773,-0.405l0.491,-0.981l0.298,-0.111l1.843,0.764l0.132,0.289l-0.346,1.04l0.26,0.832l0.113,0.089c0.467,0.366 0.889,0.787 1.254,1.252l0.088,0.113l0.832,0.261l1.039,-0.346l0.289,0.132l0.764,1.843l-0.111,0.298l-0.98,0.489z"/>
  <path fill="#ffffff" id="svg_2" d="m10.53841,5.394384c-2.804,0 -5.085,2.277 -5.085,5.077s2.281,5.077 5.085,5.077s5.085,-2.277 5.085,-5.077s-2.281,-5.077 -5.085,-5.077zm0,9.23c-2.294,0 -4.16,-1.863 -4.16,-4.153s1.866,-4.153 4.16,-4.153s4.16,1.863 4.16,4.153s-1.866,4.153 -4.16,4.153z"/>
 </g>
</svg>